<svg width="17" height="16" viewBox="0 0 17 16" fill="none" xmlns="http://www.w3.org/2000/svg">
<path d="M12.5278 8.72589L12.3364 8.72794C11.778 8.72794 11.4543 8.33612 11.6641 7.86412C11.8124 7.51794 12.1501 7.24519 12.5555 7.15512C13.7345 6.87055 14.5463 5.94444 14.5463 4.85753C14.5463 3.54891 13.3053 2.47993 11.7493 2.47993C10.1934 2.47993 8.9524 3.54891 8.9524 4.85753V11.1475C8.9524 13.3169 7.00837 15.0598 4.62073 15.0598C2.2331 15.0598 0.289062 13.3169 0.289062 11.1475C0.289062 9.24669 1.79257 7.62653 3.82401 7.31899H3.99174C4.42114 7.31899 4.71718 7.56829 4.71718 7.91863C4.71735 7.97959 4.71621 8.00925 4.71005 8.04621C4.7022 8.09336 4.68678 8.1379 4.66406 8.18281C4.52325 8.51136 4.15796 8.79547 3.77261 8.89181C2.60001 9.17485 1.78187 10.0967 1.78187 11.1475C1.78187 12.4561 3.02287 13.5251 4.5788 13.5251C6.13473 13.5251 7.37572 12.4561 7.37572 11.1475V4.85753C7.37572 2.68812 9.31976 0.94519 11.7074 0.94519C14.095 0.94519 16.0391 2.68812 16.0391 4.85753C16.0391 6.77884 14.5602 8.37244 12.5278 8.72589Z" fill="#576B95"/>
</svg>
